<?xml version="1.0" encoding="utf-8"?>

<!DOCTYPE svg PUBLIC "-//W3C//DTD SVG 1.1//EN" "http://www.w3.org/Graphics/SVG/1.1/DTD/svg11.dtd">
<svg version="1.1" id="Layer_1" xmlns="http://www.w3.org/2000/svg" xmlns:xlink="http://www.w3.org/1999/xlink" x="0px" y="0px"
	 viewBox="0 0 2235.9 1738.8" style="enable-background:new 0 0 2235.9 1738.8;" xml:space="preserve">
<style type="text/css">
	.st0{fill:#373435;stroke:#373435;}
	.st1{fill:#82CEBB;stroke:#82CEBB;}
	.st2{fill:#7DAB9F;stroke:#7DAB9F;}
	.st3{fill:#CCD5B5;stroke:#CCD5B5;}
	.st4{fill:#BBB78A;stroke:#BBB78A;}
	.st5{fill:#E4E3BF;stroke:#E4E3BF;}
	.st6{fill:#746F5D;stroke:#746F5D;}
	.st7{fill:#CDDEBC;stroke:#CDDEBC;}
	.st8{fill:#AAD5B8;stroke:#AAD5B8;}
	.st9{fill:#929278;stroke:#929278;}
	.st10{fill:#6E736B;stroke:#6E736B;}
</style>
<g>
	<path class="st0" d="M555.3,88c46.1-13.2,94.1-19.6,142-18.5c78.2,1.7,155.8,23.7,223.6,62.5c63.4,36.2,118.5,87.1,158.5,148.2
		c34.6,52.8,57.5,113.5,64.5,176.3c20.3,6.4,41.1,10.8,61.9,14.9c46.6,8.8,94.1,13.4,141.6,12.5c48.9-0.9,97.9-7.9,144.3-23.4
		c13.6-4.4,26.5-10.6,40.5-14c23.9-6.3,48.7-9,73.4-8.7c14.7,0.3,29.4,1.4,44.1,2.6c70.1,6.3,140.1,22,203.9,52.2
		c46.4,21.9,88.9,52.1,124.4,89.2c2.1,2.7,5.7,3.1,8.7,4.2c33.6,11.2,66,26.7,94,48.5c26.2,20.2,48,46.1,63,75.6
		c18.4,35.9,26.8,76.3,28.8,116.5c2.5,47.8-3.1,95.9-16.4,141.9c-19.5,68.1-55.4,130.9-101.9,184.1c-15.7,18.1-32.8,35-50.7,51
		c8,30,12.3,60.9,16.2,91.7c0.4,3.2,1,6.8-1.2,9.6c-2.3,3.5-6.7,3.8-10.4,4.6c-19.3,4.1-38.5,9.2-56.3,17.8
		c-14.3,6.9-27.4,16.8-36.4,29.9c-11.1,16.2-16,35.6-19.5,54.6c-6.5,38.9-8.9,78.3-14.3,117.4c-0.5,3.6-3.7,6-6.9,7
		c-29.5,10.9-57.3,28.9-75.7,54.9c-14.3,20.2-23,44.7-22.8,69.6c0.1,4.9-4.5,9-9.3,8.6c-41.6,0-83.1,0-124.7,0
		c-4.6,0.2-9.1-3.8-9-8.5c0.6-36,13-71.4,34.2-100.4c10.9-15.2,23.9-28.8,37.7-41.5c11.3-10.5,23.4-20.1,34.3-31
		c2.8-3.2,6.6-6.5,6.3-11.2c0-47.1,0-94.1,0-141.2c-6.5,1.4-13,2.6-19.5,3.6c-2,0.4-4.4,0.3-5.7,2.2c-10.1,11.4-16.1,25.8-20.1,40.3
		c-7.5,27.1-8.9,55.3-12.2,83.1c-0.2,3.2-2.2,6-5,7.5c-29.9,17.4-57.2,39.9-77.1,68.4c-16.3,23.4-27.9,50.9-29.3,79.6
		c-0.6,4.1-4.7,7.2-8.8,6.9c-38.6,0-77.3,0-115.9,0c-4.8,0.3-9.3-4-9-8.8c0.7-33.6,11.4-66.8,30.2-94.7
		c10.7-16.3,23.9-30.7,38.1-44.1c11.9-11.5,24.9-21.8,36.6-33.6c3-3.3,6.8-6.9,6.4-11.7c-0.1-30.1,0-60.3-0.1-90.5
		c-38.7-0.1-77.3-0.1-116,0c-25.5,26.6-48.6,55.6-67.6,87.2c-3.3,5-11.7,4.5-14.5-0.8c-2-3.6-0.9-7.9-1.1-11.9
		c0-57.4,4.5-114.8,14.9-171.3c13.5-73.1,37.7-144.8,76.1-208.7c0.7-1.2,1.3-2.5,2-3.7c-1.2-0.7-2.4-1.7-3.9-1.5
		c-45.2,0-90.4,0-135.6,0c-10.2,0.1-20.5-0.4-30.7,1c-30,4.1-57.6,18.6-81.7,36.4c-15.9,11.8-30.7,25.2-44,39.9
		c36.1,16.4,64.3,46.5,84.4,80.1c6.8,11.4,12.9,23.3,17.6,35.7c2,4.6-0.6,10.3-5.3,11.8c-23.9,9.2-44.6,25.6-60.1,45.9
		c-19.3,25-31.4,54.9-39.5,85.3c-10.7,41.5-14.4,84.7-13,127.5c0.1,4.5-4,7.9-8.2,8.6c-26,6.5-47.9,26.1-58.3,50.6
		c-1.3,3.6-4.9,6-8.7,5.8c-41.9,0-83.8,0-125.8,0c-5.5,0.4-10.4-5.2-9-10.6c3.8-20.4,14.1-39,27.2-54.9
		c19.4-23.5,44.4-41.7,70.5-57.2c5.6-3.5,12.1-6.3,15.4-12.3c5.6-10,6.6-21.7,7.8-32.9c2.3-32.4,0-64.9-2.4-97.2
		c-4.6-59.2-7.6-118.6-5.2-178c-45.1-17.1-86.1-44.1-121.7-76.4c-1.2-1.2-2.9-0.8-4.3-0.9c-52.8,0.8-105.9-3.3-157.6-14.3
		c-35.8-7.7-71.2-18.7-104-35.1c-0.1,18.5-0.2,37,0,55.5c5.3,6.1,11.9,11,18.1,16c36.5,27.9,82.2,41.6,127.6,44.6
		c10.4-13.1,20.9-26.1,31.3-39.2c2.4-3.2,6.8-4.2,10.4-2.7c31.2,11.4,62.4,22.6,93.6,34c4.7,1.5,7.5,7.2,5.3,11.8
		c-9.2,19.2-22.8,36.2-39.3,49.6c-22.8,18.7-50.6,30.6-79.3,36.6c-38,7.9-77.7,6-115.4-3c-31.8-7.8-62.4-20.4-90.9-36.6
		c-27-15.4-51.7-35-72.3-58.3c-22.4-25.3-39.8-54.9-52.1-86.4C468,958.4,461,898.6,460.2,839.6c0-3.2-0.3-6.5,0.1-9.7
		c0.8-3.9,4.5-6.9,8.5-6.8c72-0.1,144.1,0.2,216.1-0.1c-9.1-13.4-18-27-25.5-41.4c-19.4-36.5-33.2-75.8-43.4-115.7
		c-10.9-42.8-17.8-86.5-21.9-130.5c-3.6-38.4-5-77-4.2-115.5c-5.1-0.1-10.2-0.1-15.2,0c0.1,44.6-4.9,89.7-19.6,132.1
		c-11.5,33.5-29.5,64.9-53.7,90.8c-20.6,22.3-45.6,40.1-72.2,54.4c-3.8,2.2-7.9,4-11.6,6.3c-0.9,1.3-0.4,3.1-0.6,4.6
		c0.1,24.4,0,48.8,0,73.2c-0.1,7.3,2.1,14.6,6.6,20.4c4.6,5.9,11.2,10,18.2,12.5c4.3,1.4,6.9,6.7,5.2,10.9
		c-10.5,24.9-29.3,46.5-53.2,59.4c-23.2,12.7-50.1,17.9-76.5,17c-3.9-0.3-8.4,0-11.5-2.8c-12.3-10.6-21.6-24.3-28.3-38.9
		c-10.7-23.4-15.9-49-18.1-74.6c-1.3-14.4-0.8-29-0.9-43.4c0-94,0-188.1,0-282.1c-52.6,22.7-105,46-157.5,68.8
		c-5.3,2.6-12.1-1.6-12.2-7.4c0.2-5.5,1.6-10.8,2.6-16.2c7.1-32.1,20.5-63.4,41.8-88.7c6.2-7.3,13.1-14.1,20.7-19.9
		c1.2-1,2.4-2,3.3-3.2c-27.8-6.8-55.5-13.6-83.3-20.4c-3.2-0.9-6.9-1.2-9.2-3.8c-3.3-3.4-3-9.5,0.7-12.5c5.6-4.7,11.7-8.8,17.8-12.9
		c23.9-15.4,50.2-27.6,78-33.8c24.7-5.6,50.9-5.9,75.4,1c8.4,2.2,16.4,5.6,24.3,9.2c3.5-14.2,8.8-28,16.4-40.5
		c11.9-19.8,27.7-36.8,44.3-52.7c33.9-32.4,71.2-61.4,111.6-85.3C471.6,118.4,512.6,100.3,555.3,88 M668.6,87.2
		c0.8,0.6,1.7,1.3,2.6,1.8c36.6,19.2,70.4,44.3,98.3,74.9c22.3,24.4,40.7,52.3,53.9,82.7c16.6,38.1,24.4,79.6,24.7,121
		c0.1,76.5,0,153,0,229.6c-0.2,21.7,2.7,43.6,9.7,64.2c9.6,29,27.7,55,51.4,74.3c26.8,21.9,59.4,35.9,93,43.6
		c-2.7-3.6-5.8-6.8-8.4-10.5c-10.2-13.7-17.5-29.4-22.7-45.6c-6.9-21.3-10.6-43.5-12.7-65.8c-2.3-23.3-2.8-46.8-2.7-70.2
		c0.1-82.1,0.2-164.3-0.3-246.4c-0.1-21.3-1.4-42.7-5.2-63.8c-6.1-35.8-18.9-70.9-39.9-100.7c-19.5-27.6-46.1-50.6-77.1-64.4
		c-8.6-3.9-17.7-6.3-26.8-8.9C761.7,90.8,715,85.5,668.6,87.2 M612.7,92.9c-22.3,3.7-44.3,9-65.8,15.9c3.1,2.6,7.2,3.8,10.8,5.7
		c31.8,15.7,61.8,35.5,87.7,59.8c22,20.6,41.2,44.6,55.3,71.3c17.6,32.9,27.2,69.8,28.7,107.1c0.9,26.4,0.7,52.9,1.7,79.3
		c0.2,15.5,0.2,31,0.9,46.5c0,26.5,1.6,53.1,5.9,79.3c3.5,21.1,8.9,42,17.6,61.6c10.8,25,27.8,47.9,50.8,63
		c15.4,10.4,33.2,17,51.4,20.6c-5-9.4-10.1-18.7-13.7-28.7c-8.6-22.3-12.7-46.3-13.1-70.2c-0.2-76.5,0-153-0.1-229.5
		c0.5-39.6-6.1-79.4-21.2-116.1c-13.6-33.5-34.2-64-59.4-90c-23.2-23.9-50.2-44.1-79.4-60.2c-12.5-6.8-25.2-13.2-38.6-17.8
		C625.5,90.4,619.1,92.1,612.7,92.9 M519.6,118.4c-18.1,7.2-36.1,14.9-53.1,24.5c10.8,5.9,21.8,11.2,32.3,17.6
		c29.9,17.6,58.3,39.7,77,69.5c19.3,30.1,26.9,65.9,29.8,101.1c2.4,26.3,2.2,52.7,2.2,79.1c0.5,12.4,1.9,24.9,4,37.2
		c6.1,35.4,19.2,70.3,42,98.4c18.8,23.1,44.8,41.1,74.1,47.4c-8.5-31.3-11.9-63.7-12.9-96c-1-47.2-1.9-94.3-2.9-141.5
		c-1.1-38.5-11.7-76.8-31.3-110.1c-15.8-27-36.9-50.7-60.9-70.7c-27.9-23.2-59.7-41.4-93.1-55.3C524.5,118.7,522,117.1,519.6,118.4
		 M907.1,144.7c9,10.7,17.8,21.6,25.1,33.6c22.4,36.1,34.2,78,38.4,120.1c2.5,23,2,46.1,2.1,69.2c0.1,28.1,0.1,56.2,0.2,84.3
		c1.8-1.8,3-4.1,4.2-6.4c34.2-64.6,47.3-139.8,38.5-212.3c-0.5-2.6-0.3-5.5-2.2-7.5c-26.3-27.3-56.1-51.1-88.4-70.9
		C919.1,151.3,913.4,147.4,907.1,144.7 M447.3,153.2c-12.9,7.4-25.2,15.5-37.5,23.7c12.6,20.8,30.5,37.9,50,52.2
		c28.9,20.7,61.7,36,96.3,44.2c7.3,1.5,14.6,3.5,22.1,3.5c-7.7-26.3-22.9-50.2-43.1-68.6C509.5,184.7,478.6,167.8,447.3,153.2
		 M352.3,222.3c27.1,40.8,68.4,70.6,113.3,89.2c38.9,16.1,80.9,24.8,122.9,25.2c-0.1-6.6-1-13.1-1.9-19.6
		c-1.1-7.3-1.8-14.7-3.9-21.7c-3.6-1.4-7.9-0.7-11.7-1.5c-35.9-5.5-70.4-19-101.6-37.5c-29.1-17.4-55.3-40.3-73.9-68.9
		C380.4,198.2,366.1,210,352.3,222.3 M317.4,255.7c-0.9,1.1-2.8,2.8-0.9,3.9c5.9,5.1,12.9,8.6,20,11.7c13.7,5.5,28.5,8.1,43.2,7.9
		c-15.3-13.4-28.9-28.6-40.6-45.2C331.6,241,324.3,248.2,317.4,255.7 M1034.9,249.7c0.6,13.4,1.1,26.9,0.5,40.3
		c-1.3,39.7-8.9,79.2-22,116.7c-9.9,26.7-22.4,52.5-38.3,76.2c-1.1,1.6-2,3.4-1.8,5.4c0,21.5,0,42.9,0,64.4
		c0.1,43.7-1.4,87.7,6.1,131c3.3,19,8.3,37.9,16.8,55.3c6.9,14.2,16.5,27.4,28.9,37.4c7.4,6.1,16.5,10.2,22.4,18
		c-0.2,1.5-0.1,3.1,0,4.6c-2.3,1.4-4.8,2.7-7.5,2.9c-8.3,1-16.5-0.4-24.6-1.9c-22.2-4-44.2-10.3-64.9-19.3
		C921,768,894,749.4,873.5,724.8c-1.9-2.9-5.6-2.6-8.5-3.2c-29.1-3.7-57.7-14.7-80.4-33.6c-23.9-19.6-40.1-47-50.8-75.7
		c-25.9-4.1-50.5-15.6-70.6-32.4c-24.3-20-41.8-47.1-53.8-76c0.2,13,1.8,25.9,2.9,38.8c5.5,53.6,15.1,106.9,31.9,158.2
		c11.2,34,25.6,67.2,45.1,97.3c17.9,27.8,40.3,53,67.6,71.9c3.2,2.1,7.2,4.7,7.2,9.1c0.6,6.1-6.4,11.1-11.9,8.5
		c-4.2-2.2-7.9-5.3-11.8-8c-15.2-11.4-28.9-24.6-41.2-39.1c-73.8-0.1-147.6,0-221.5,0c0.5,39.5,4.1,79.1,13.1,117.7
		c7.4,31.3,18.5,61.9,34.8,89.7c16.1,27.6,37.5,52.2,62.6,71.9c24.6,19.5,52.6,34.4,81.8,45.8c37.5,14.7,78.1,22.1,118.4,19.2
		c17.3-1.5,34.7-4.3,51-10.4c-11.7-19.1-17.7-41-21.6-62.8c-3.6,3.7-6.3,8.1-9.9,11.8c-2,2-5,2.4-7.7,2.2
		c-22.8-1.4-45.6-5.1-67.5-11.8c-33.2-10-64.4-27.1-89.7-50.9c-3.5-3.6-8.8-6.9-8.4-12.6c0-30.4,0-60.8,0-91.1
		c-0.4-8.8-6.5-16.3-13.9-20.5c-8-4.7-17.2-6.5-26.3-7.7c-6.4-0.8-9.4-9.5-5-14.2c4-4.9,10.9-2.5,16.2-1.7
		c16.8,3,34.4,11.3,42.2,27.3c4.9,9,4.5,19.4,4.3,29.2c33.6,18.9,70.8,30.1,108.2,38.3c45.6,9.6,92.3,13.8,138.9,13.7
		c-18.8-20.2-36.2-41.8-50.9-65.1c-41-64.3-63.3-139.3-69.6-215c-0.7-4.6,2.8-9.3,7.5-9.8c5.2-0.9,10.1,3.7,10,8.9
		c4.4,50.2,15.6,100,35.4,146.5c24.8,58.8,63.6,111.7,112.4,152.7c26.4,22.2,55.7,41.3,87.4,55.2c5.3,2.1,10.5,4.7,16.1,5.7l0,0.7
		c3.9,0.7,7.7,2,11.7,1.8c23.1-0.1,46.3,0.1,69.4-0.1c0.2-199,0-398,0.1-597c0.1-19.5-0.7-39.1-3.5-58.4
		C1115.3,376.1,1082.6,306.3,1034.9,249.7 M303.8,271.8c-5.8,7.7-11.5,15.6-15.5,24.4c22.6,19.8,52.9,28.6,82.5,30.4
		c22,0.9,44.6-1.2,65.2-9.4c-7.6-4.6-15.7-8.6-23.1-13.5c-4.7-2.7-8.9-6.3-13.7-8.9c-4.8,0.1-9.6,1.3-14.4,1.5
		C356.1,297.9,326.2,290.1,303.8,271.8 M281.1,313.2c-1.6,5.2-2.9,10.4-4,15.7c27.7,18.5,49.2,44.8,66.1,73.2
		c82.4,0.1,164.8,0,247.2,0c-0.1-16,0.3-32.1-0.9-48.1c-44.6-0.4-89-9.4-130.2-26.4c-1.4-0.8-2.9-0.1-4.2,0.5
		c-20.4,9.9-42.9,14.6-65.5,15.8c-24,1.1-48.3-2-71-10.3C305.2,328.9,292.7,321.6,281.1,313.2 M137.7,335.2
		c-15.9,6.2-31.3,13.7-45.3,23.5c12.2,3.5,24.6,6.2,36.8,9.3c45.8,11.3,91.6,22.5,137.3,33.7c2.8,0.6,5.6,0.5,8.4,0.5
		c15.9-0.1,31.8,0,47.7-0.1c-5.6-9.1-12-17.6-18.9-25.7c-19-22.4-43.7-40.6-72.3-48.3C200.4,319.6,167.3,323.9,137.7,335.2
		 M163.5,410.5c-5.1,4.4-10.8,8.5-14.6,14.1c-14,15.1-24,33.6-31.3,52.8c-3.2,9.2-6.6,18.4-8.2,28c7.8-2.6,15.1-6.4,22.6-9.5
		c29.6-13.1,59.4-25.8,88.9-39.1c12.8-4.9,25.2-11,37.9-16.3c0.3-7.7,0.3-15.4-0.1-23.1c-21.8-5.1-43.6-10.7-65.4-15.9
		c-4.1-0.9-8.2-2.7-12.4-2.3C174.7,402,169,406.3,163.5,410.5 M276.2,419.9c0.1,111.8,0,223.7,0.1,335.5
		c-0.6,26.8,2.2,53.8,10.3,79.4c5.5,17.1,13.8,33.7,26.6,46.5c1.2,1.1,2.4,2.6,4.2,2.4c25.8,1.2,52.4-4.5,74.2-18.5
		c14.8-9.5,27.1-23,35.3-38.7c-3.3-2.1-6.6-4.2-9.6-6.7c-10.9-8.9-17.6-22.6-17.7-36.7c-0.1-28.1,0-56.2,0-84.2
		c-0.4-3.9,2.1-7.5,5.7-9.1c17.1-8.8,34.1-18.1,49.6-29.6c25.5-18.5,47.1-42.3,62.9-69.5c12.5-21.2,21.3-44.4,27.8-68.2
		c8.5-33.6,12-68.3,11.6-102.9c-24.8-0.2-49.7-0.1-74.5,0c-22.1-0.1-44.1-0.1-66.2,0c-22.1-0.1-44.2,0-66.3,0
		C325.5,419.9,300.8,419.4,276.2,419.9 M1532.6,464.6c-10,2.8-19.4,7.2-29.2,10.5c-48,17-99,24.6-149.8,26.3
		c-24,0.4-47.9-0.2-71.8-2c2.9,58.2,10.1,116.3,21.5,173.5c14.2,70.3,35.5,139.3,66,204.2c23,49.1,51.5,95.8,85.3,138.3
		c2.1,0,4.2,0,6.4,0.1c10.7-16,22.5-31.1,34.8-45.8c8.7-9.9,17.7-19.6,27.1-28.9c36.8-36.4,79.7-66.5,126-89.6
		c48.4-24.1,100.3-40.9,153.5-50.4c28.1-4.9,56.6-8.2,85.2-8.1c52.8,0,105.5,0,158.3,0c-2.1-41.5-9.8-83.2-26.9-121.2
		c-14-31.4-35.1-59.1-59.3-83.3c-33.1-33.3-72.2-60.3-114.7-80.2c-63.5-29.9-133.1-44.9-202.7-50.7c-16.2-1.2-32.4-2.5-48.6-1.9
		C1573.2,456.1,1552.5,459,1532.6,464.6 M1145.8,475.5c0.2,8.2,0.7,16.4,0.7,24.7c0,156.3,0,312.7,0,469
		c0.1,40.6-0.2,81.2,0.2,121.8c19-18.9,39.8-36.3,63-49.9c24.7-14.5,52.6-24.8,81.5-25.5c47.2-0.1,94.3,0.1,141.5-0.1
		c-1.9-2.7-3.8-5.3-5.8-7.9c-32.6-44-59.8-91.9-81.7-142c-30.5-69.6-51.1-143.2-64.1-217.9c-8.8-49.6-13.7-99.8-17-150.1
		C1224.1,493.4,1184.5,486.1,1145.8,475.5 M2003.4,611c1,1.7,2,3.3,3.2,4.8c10.4,14.2,19.5,29.4,26.9,45.4
		c17.1,0.3,34.3,0.3,51.5,0.1c-9.2-9.2-19.8-16.9-30.6-24.1C2038.3,626.8,2021.3,617.9,2003.4,611 M2041.2,679
		c5.8,15.8,10.6,32,14.1,48.5c25.7-0.1,51.3,0,77,0c-1.8-5.9-5.1-11.1-7.9-16.5c-5.9-10.6-12.8-20.6-20.6-30c-1-1.5-2.6-2.1-4.3-2
		C2080.1,679,2060.6,678.5,2041.2,679 M2058.7,744.7c0.5,6.6,1.8,13.1,2.5,19.7c1.2,9.4,1.7,18.9,2.6,28.4c18.5,0.1,37,0,55.4,0
		c9.8,0,20.1-3.1,26.8-10.5c1.3-1.6,3.2-3.5,2.5-5.8c-2.3-10.7-5.3-21.3-8.9-31.6C2112.7,744.6,2085.7,744.8,2058.7,744.7
		 M2136,807.8c-9.9,3.1-20.4,2.2-30.6,2.3c-76.9,0-153.7-0.1-230.6,0.1c-55.5,2.4-110.6,13.9-162.8,32.8
		c-50.8,18.5-98.8,44.8-140.9,78.6c-8.2,6.7-16.5,13.3-23.9,20.8c7.9-2.5,15.5-5.9,23.5-8.3c31.7-10.3,65-15.9,98.3-16.7
		c12.5-0.2,25.1-0.1,37.6-0.1c55.7,0,111.5-0.3,167.2-0.4c56.1-0.3,112.1-0.5,168.2,0.5c25.1-0.7,50.1-6.2,72.9-16.7
		c15.3-7.3,30.1-17.5,39.2-32.1c1.6-2.4,1.3-5.4,1.5-8.2c0.5-20.2-0.3-40.4-3-60.4C2147.4,803.1,2142,806.2,2136,807.8
		 M2106.6,922.8c-20.1,7-41.2,11.2-62.5,11.8c-13.5,0-27-0.4-40.5-0.4c-107.9-0.3-215.7,0.4-323.6,0.5c-31.4-0.1-62.9,4-93.1,12.6
		c-26.9,7.8-53,18.9-76.3,34.4c-4.7,2.8-7.7,7.5-11.2,11.6c-34.2,42.4-60.6,90.8-79.9,141.7c-8.8,23.8-16.8,48-22.4,72.8
		c2.7-2.8,4.7-6,6.9-9.1c15.2-20.8,32.1-40.3,51-57.8c39.4-36.9,87.9-64.8,140.7-77c22.4-5.3,45.5-7.6,68.5-7.4
		c79.8-0.4,159.6-1.3,239.5-2.1c49.4-0.7,99.3,0,147.8-11c18.5-4.4,37.1-10.3,53.1-20.8c11.4-7.6,22-17.9,26.1-31.3
		c10.9-30.5,18.7-62.2,22.3-94.4C2139.2,908.3,2123.4,917,2106.6,922.8 M2088.9,1049.7c-20.7,8.3-42.8,13.1-64.8,16.2
		c-23.9,3.4-48,4.6-72,5.3c-54.4,1.1-108.8,0.9-163.3,1.9c-46.5,0.1-93,0.8-139.5,1.1c-58.1,2-114.7,24.6-160.2,60.4
		c-40.4,31.4-72.8,72.2-98.4,116.3c-2,3.7-4.6,7.2-5.3,11.4c-3.4,19.9-6,40-8,60.1c-2.2,24.2-4.2,48.4-4,72.7
		c5.9-7.1,11-14.9,16.9-22.1c11.7-14.9,24.3-29.1,37.4-42.7c48-49.2,105.7-89.7,170.3-113.7c42.9-16.1,88.6-24.7,134.5-25.4
		c25.4-0.3,50.8-0.1,76.2-0.1c28.4-0.2,56.8,0.4,85.2-0.5c39.5-2.4,79.5-10,115.1-28.1c13.7-7,26.7-15.8,37.3-27
		c13.6-16,26.2-32.9,37.6-50.5c9.3-14.5,18.2-29.3,25.6-44.8C2102.5,1043.3,2096,1047.1,2088.9,1049.7 M839.1,1084.2
		c-2.4,3.6-7.2,6.7-6.1,11.6c3.3,25.1,8.6,50.9,22.9,72.3c8.7-3.5,16.8-8.5,24.5-13.8c15.3-10.8,28.7-24.7,38-41
		c-4.9-2.8-10.5-4.1-15.7-6.2C881.5,1099.6,860.5,1091.5,839.1,1084.2 M1057.6,1122.6c-0.4,6.2-0.5,12.4-0.7,18.7
		c-0.6,39.7,0.8,79.5,3.3,119.1c2.2,33.2,5.6,66.3,5.7,99.7c0.1,17.9,0.1,35.9-3.4,53.5c-2.4,12.3-6.9,25.3-17.5,33
		c-10.4,7.1-21.8,12.6-31.6,20.3c2.6,1.2,5.3,2.4,8,3.5c22.2,9.6,41.4,25.1,57.6,43c11.4-10.6,25.1-18.7,39.8-23.6
		c-0.6-44.8,4.1-89.9,16.4-133c8.4-28.9,20.5-57,38.6-81.2c15.8-21.5,36.8-39.2,61.1-50.3c-1.5-4.8-3.9-9.1-6.2-13.5
		c-6.7-12.9-14.6-25.3-23.6-36.7c-17.6-22.4-40.3-41.4-67.1-51.6c-3-1-6.2-0.7-9.2-0.7C1105,1122.7,1081.3,1122.6,1057.6,1122.6
		 M1923,1205.2c-20.5,2.7-41.3,3.4-62,3.2c-30.3,0-60.7,0-91,0c-23.5,0.1-47-0.5-70.4,2c-39.9,4.1-79.2,14.4-115.9,30.6
		c-32.3,14.1-62.7,32.4-90.5,53.9c-12.5,9.8-25,19.8-36.2,31.2c63.8,0.3,127.5,0,191.3,0.1c14-0.1,28.1,0.4,42.1-0.5
		c59.3-3.9,116.8-22.7,170.1-48.3c35.1-17,68.6-37.2,99.6-60.8c11.8-9.2,23.7-18.4,34.5-28.7
		C1971.5,1196.3,1947.4,1202.1,1923,1205.2 M1962.4,1236.7c-28.8,21-59.5,39.4-91.5,55c-34.4,16.8-70.3,30.6-107.4,39.9
		c0,46.4,0,92.8,0,139.2c-0.1,4.9,0.5,10.1-1.4,14.8c-2.8,6.9-7.9,12.4-13.1,17.6c-8.4,8.1-17.4,15.6-26,23.4
		c-5.2,4.9-11,9.4-15.5,15c20.7,8.3,39.4,20.9,55.9,35.8c5.1,4.4,9.4,9.6,14.5,14.1c2.8-3.2,4.5-7.3,7.2-10.6
		c19.6-27.9,49-47.5,80.4-59.9c3.3-28.5,6.1-57.2,9.5-85.7c2.3-18.6,4.9-37.2,10.1-55.3c4.2-14.5,10.3-28.6,20-40.3
		c10.1-12.4,23.6-21.6,38-28.3c18.7-8.8,38.8-13.9,58.8-18.6c-3.2-25.6-6.8-51.3-13.1-76.4
		C1979.9,1223.2,1971.4,1230.2,1962.4,1236.7 M1657.2,1343.2c-28.3,0-56.7-0.1-85,0c-0.1,17.1-0.2,34.2,0,51.3
		c-0.2,13.6,0,27.1,0,40.7c0.1,8.5-5.2,15.8-10.7,21.9c-6.2,6.7-13.2,12.6-20,18.7c-14.3,12.6-28.3,25.5-40.4,40.2
		c21.7,7.4,41.6,20,57.8,36.3c4.7,4.6,8.6,9.9,13.1,14.7c3.6-7.6,7.1-15.4,11.5-22.6c18-31,44.4-56.5,74-76.4
		c4.5-3.4,9.9-5.7,14.1-9.5c2.8-22.5,4.2-45.2,8.9-67.3c2.4-9.9,4.6-19.8,8.4-29.2c2.4-6.9,6.4-13,9.1-19.8
		C1684.4,1343.8,1670.8,1343,1657.2,1343.2 M990.8,1483.3c-18.9,16.5-36.6,36.2-44.3,60.6c36.6,0.3,73.3,0.1,109.9,0.1
		c3.5-6.1,7.1-12.1,11.2-17.8c-18.5-21.2-42.1-39.1-69.7-46.2C995,1478.9,992.9,1481.7,990.8,1483.3 M1488.4,1532.6
		c-15.2,23-25.7,49.8-27.1,77.6c33.1-0.1,66.2,0.4,99.3-0.2c0.8-7.5,2.7-14.8,4.3-22.2c-1-2.7-3-4.8-4.6-7.2
		c-16.3-22.5-39.3-40.5-66-48.7C1492.4,1531.4,1489.5,1530.3,1488.4,1532.6 M1693.9,1555.2c-23.7,26.9-40.3,60.8-42.8,96.8
		c36,0,72.1,0.1,108.1,0c1-5.9,1.4-12,2.8-17.8c1.7-8.7,4.7-17.1,7.7-25.4c-9.6-11.2-20.4-21.4-32.2-30.2
		C1724.3,1568.6,1709.8,1560,1693.9,1555.2z"/>
	<path class="st1" d="M668.6,87.2c46.4-1.7,93.1,3.7,137.9,16c9,2.6,18.2,5,26.8,8.9c31,13.8,57.5,36.7,77.1,64.4
		c21,29.8,33.8,64.8,39.9,100.7c3.8,21,5,42.4,5.2,63.8c0.5,82.1,0.4,164.3,0.3,246.4c-0.1,23.4,0.4,46.8,2.7,70.2
		c2.1,22.3,5.8,44.5,12.7,65.8c5.3,16.2,12.5,31.9,22.7,45.6c2.6,3.6,5.7,6.9,8.4,10.5c-33.6-7.7-66.2-21.7-93-43.6
		c-23.7-19.3-41.8-45.3-51.4-74.3c-6.9-20.6-9.9-42.5-9.7-64.2c0-76.5,0.1-153,0-229.6c-0.3-41.4-8.2-83-24.7-121
		c-13.1-30.3-31.6-58.3-53.9-82.7c-27.9-30.6-61.7-55.7-98.3-74.9C670.2,88.4,669.4,87.8,668.6,87.2z"/>
	<path class="st2" d="M612.7,92.9c6.4-0.8,12.9-2.5,19.4-2.4c13.4,4.6,26.2,11,38.6,17.8c29.2,16.1,56.1,36.3,79.4,60.2
		c25.2,25.9,45.8,56.4,59.4,90c15.1,36.7,21.8,76.5,21.2,116.1c0,76.5-0.1,153,0.1,229.5c0.4,23.9,4.5,47.8,13.1,70.2
		c3.6,10,8.8,19.3,13.7,28.7c-18.2-3.5-36-10.2-51.4-20.6c-22.9-15.1-40-38-50.8-63c-8.6-19.6-14.1-40.5-17.6-61.6
		c-4.3-26.2-5.9-52.7-5.9-79.3c-0.7-15.5-0.7-31-0.9-46.5c-1-26.4-0.9-52.9-1.7-79.3c-1.5-37.2-11.1-74.2-28.7-107.1
		c-14.1-26.7-33.3-50.7-55.3-71.3c-25.9-24.3-55.9-44.1-87.7-59.8c-3.6-1.9-7.6-3-10.8-5.7C568.3,102,590.4,96.6,612.7,92.9z"/>
	<path class="st1" d="M519.6,118.4c2.4-1.4,4.9,0.3,7.2,1.1c33.4,13.9,65.2,32.2,93.1,55.3c24,19.9,45.2,43.6,60.9,70.7
		c19.5,33.3,30.2,71.6,31.3,110.1c1,47.2,1.9,94.3,2.9,141.5c1,32.3,4.4,64.7,12.9,96c-29.3-6.3-55.3-24.4-74.1-47.4
		c-22.9-28.1-36-63-42-98.4c-2.1-12.3-3.4-24.7-4-37.2c0-26.4,0.2-52.8-2.2-79.1c-2.9-35.2-10.6-71-29.8-101.1
		c-18.7-29.7-47.1-51.8-77-69.5c-10.5-6.4-21.6-11.7-32.3-17.6C483.5,133.3,501.5,125.7,519.6,118.4z"/>
	<path class="st2" d="M907.1,144.7c6.3,2.7,12,6.6,17.9,10c32.3,19.8,62.1,43.6,88.4,70.9c1.9,2,1.7,5,2.2,7.5
		c8.8,72.4-4.2,147.7-38.5,212.3c-1.1,2.3-2.4,4.6-4.2,6.4c-0.1-28.1-0.1-56.2-0.2-84.3c-0.2-23.1,0.3-46.2-2.1-69.2
		c-4.2-42.1-16.1-83.9-38.4-120.1C925,166.3,916.1,155.4,907.1,144.7z"/>
	<path class="st2" d="M447.3,153.2c31.3,14.6,62.3,31.5,87.8,55.1c20.1,18.5,35.4,42.3,43.1,68.6c-7.5,0-14.8-2-22.1-3.5
		c-34.6-8.3-67.4-23.5-96.3-44.2c-19.5-14.3-37.5-31.4-50-52.2C422,168.7,434.4,160.6,447.3,153.2z"/>
	<path class="st1" d="M352.3,222.3c13.8-12.3,28.2-24.1,43.2-34.9c18.6,28.6,44.8,51.5,73.9,68.9c31.2,18.6,65.7,32,101.6,37.5
		c3.8,0.8,8.1,0.2,11.7,1.5c2.2,7,2.8,14.5,3.9,21.7c0.8,6.5,1.7,13,1.9,19.6c-42.1-0.5-84-9.2-122.9-25.2
		C420.7,292.9,379.4,263.1,352.3,222.3z"/>
	<path class="st2" d="M317.4,255.7c7-7.5,14.3-14.7,21.7-21.6c11.7,16.6,25.3,31.8,40.6,45.2c-14.7,0.2-29.5-2.4-43.2-7.9
		c-7.1-3-14.2-6.6-20-11.7C314.5,258.5,316.4,256.8,317.4,255.7z"/>
	<path class="st3" d="M1034.9,249.7c47.8,56.6,80.4,126.4,90.6,200c2.8,19.3,3.7,38.9,3.5,58.4c-0.1,199,0.1,398-0.1,597
		c-23.1,0.3-46.3,0-69.4,0.1c-4,0.1-7.8-1.2-11.7-1.8l0-0.7c0.2-88.4,0-176.8,0.1-265.1c-0.3-12.9,0.7-25.8-0.5-38.7
		c-0.1-1.5-0.2-3.1,0-4.6c1.2-9.6,0.3-19.3,0.6-28.9c0-79.8,0-159.6,0-239.5c0.2-18.2-2-36.4-5.2-54.3c-3.9-19.6-9.4-39.5-21.1-56.1
		c-2.2-3.4-5-6.4-8.2-8.8c13.2-37.5,20.8-76.9,22-116.7C1035.9,276.6,1035.4,263.1,1034.9,249.7z"/>
	<path class="st1" d="M303.8,271.8c22.5,18.3,52.3,26.1,81,24.5c4.8-0.1,9.6-1.4,14.4-1.5c4.8,2.6,9,6.1,13.7,8.9
		c7.5,4.9,15.5,8.9,23.1,13.5c-20.6,8.2-43.2,10.3-65.2,9.4c-29.6-1.8-59.8-10.5-82.5-30.4C292.3,287.4,298,279.5,303.8,271.8z"/>
	<path class="st4" d="M281.1,313.2c11.6,8.4,24,15.7,37.6,20.5c22.6,8.2,47,11.4,71,10.3c22.5-1.2,45.1-5.9,65.5-15.8
		c1.3-0.6,2.8-1.3,4.2-0.5c41.2,17,85.7,26,130.2,26.4c1.3,16,0.8,32.1,0.9,48.1c-82.4,0-164.8,0.1-247.2,0
		c-16.9-28.4-38.4-54.7-66.1-73.2C278.2,323.6,279.5,318.4,281.1,313.2z"/>
	<path class="st5" d="M137.7,335.2c29.6-11.3,62.7-15.6,93.6-7c28.6,7.7,53.4,25.9,72.3,48.3c6.9,8.1,13.3,16.6,18.9,25.7
		c-15.9,0.1-31.8,0-47.7,0.1c-2.8,0-5.6,0.1-8.4-0.5c-45.8-11.3-91.6-22.5-137.3-33.7c-12.3-3.1-24.7-5.7-36.8-9.3
		C106.3,349,121.8,341.4,137.7,335.2z"/>
	<path class="st6" d="M163.5,410.5c5.5-4.2,11.2-8.5,17.6-11.4c4.3-0.4,8.3,1.5,12.4,2.3c21.8,5.3,43.5,10.8,65.4,15.9
		c0.4,7.7,0.3,15.4,0.1,23.1c-12.7,5.3-25.1,11.4-37.9,16.3c-4.4-5.1-9.5-9.7-15.4-13.1c-8.8-5.5-19.2-7.5-29-10.6
		c-9.2-2.9-18.6-5.3-27.6-8.5C152.7,418.9,158.4,414.9,163.5,410.5z"/>
	<path class="st5" d="M1013.3,406.7c3.2,2.4,6,5.4,8.2,8.8c11.7,16.6,17.2,36.5,21.1,56.1c3.3,17.9,5.5,36.1,5.2,54.3
		c0,79.8,0,159.6,0,239.5c-0.2,9.6,0.6,19.3-0.6,28.9c-5.9-7.8-15-11.9-22.4-18c-12.4-10-21.9-23.1-28.9-37.4
		c-8.5-17.4-13.4-36.3-16.8-55.3c-7.5-43.3-5.9-87.3-6.1-131c0-21.5,0-42.9,0-64.4c-0.2-2,0.7-3.8,1.8-5.4
		C990.9,459.2,1003.5,433.4,1013.3,406.7z"/>
	<path class="st5" d="M276.2,419.9c24.6-0.6,49.2-0.1,73.9-0.2c22.1,0,44.2,0,66.3,0c-0.4,19.7,2.2,39.3,7.3,58.3
		c4.6,16.3,10.6,32.3,19.6,46.8c13.6,22.9,33.2,42.1,56.1,55.7c6,3.7,13,5.8,18.5,10.3c-15.9,27.2-37.5,51-62.9,69.5
		c-15.5,11.5-32.5,20.8-49.6,29.6c-3.5,1.5-6,5.1-5.7,9.1c0,28.1,0,56.2,0,84.2c0.1,14.1,6.8,27.8,17.7,36.7c3,2.5,6.3,4.6,9.6,6.7
		c-8.2,15.6-20.4,29.1-35.3,38.7c-21.9,14-48.4,19.8-74.2,18.5c-1.8,0.1-3-1.3-4.2-2.4c-12.8-12.8-21-29.5-26.6-46.5
		c-8.1-25.6-11-52.6-10.3-79.4C276.2,643.6,276.4,531.8,276.2,419.9 M371.3,534.3c-3.2,1.5-5.1,4.9-5,8.4c0,13.9,0,27.7,0,41.6
		c0.4,8.4-4.8,18-13.6,19.5c-5.6,1.3-7.8,8.7-4.5,13.2c2.6,3.9,7.8,4.4,11.9,3c14.5-4.5,23.8-19.9,23.8-34.6
		c-0.1-14.5,0.1-29.1-0.1-43.6C383.8,535.6,376.5,531.5,371.3,534.3z"/>
	<path class="st7" d="M416.3,419.7c22.1-0.1,44.1-0.1,66.2,0c0.8,18.2,5.9,36.2,14.3,52.4c7.7,15.2,19.4,28.1,32.6,38.7
		c5.1,4.3,11.4,7,16.1,11.8c-6.4,23.7-15.3,46.9-27.8,68.2c-5.5-4.5-12.5-6.6-18.5-10.3c-22.9-13.6-42.5-32.7-56.1-55.7
		c-9-14.4-15-30.5-19.6-46.8C418.5,459.1,416,439.4,416.3,419.7z"/>
	<path class="st8" d="M482.5,419.7c24.8-0.1,49.7-0.2,74.5,0c0.4,34.6-3.1,69.3-11.6,102.9c-4.7-4.8-11-7.5-16.1-11.8
		c-13.2-10.6-24.9-23.5-32.6-38.7C488.5,455.9,483.3,438,482.5,419.7z"/>
	<path class="st9" d="M117.6,477.4c7.3-19.2,17.3-37.7,31.3-52.8c9.1,3.3,18.4,5.7,27.6,8.5c9.8,3.1,20.2,5,29,10.6
		c5.9,3.4,11,7.9,15.4,13.1c-29.5,13.3-59.3,26-88.9,39.1c-7.6,3.1-14.9,6.9-22.6,9.5C111,495.8,114.4,486.6,117.6,477.4z"/>
	<path class="st5" d="M1532.6,464.6c19.9-5.7,40.6-8.6,61.3-9.1c16.2-0.5,32.4,0.8,48.6,1.9c69.7,5.8,139.3,20.7,202.7,50.7
		c42.5,19.9,81.6,47,114.7,80.2c24.2,24.2,45.3,51.9,59.3,83.3c17.1,38,24.9,79.7,26.9,121.2c-52.8-0.1-105.5,0-158.3,0
		c-28.6-0.1-57.1,3.2-85.2,8.1c-53.2,9.5-105.1,26.2-153.5,50.4c-46.3,23.1-89.2,53.2-126,89.6c-9.5,9.2-18.4,19-27.1,28.9
		c-7.9-9-14.1-19.4-20.6-29.4c-37.3-58.1-65.7-121.6-86.8-187.2c-24.7-78.1-39.7-159.2-44-241c-0.1-3.2-0.1-6.4,0-9.6
		c3-0.3,6.1-0.7,9.1-1c50.8-1.7,101.7-9.3,149.8-26.3C1513.3,471.8,1522.7,467.4,1532.6,464.6z"/>
	<path class="st4" d="M1145.8,475.5c38.7,10.6,78.3,17.9,118.3,22.1c3.2,50.3,8.2,100.5,17,150.1c13,74.7,33.6,148.4,64.1,217.9
		c22,50.1,49.1,98,81.7,142c1.9,2.6,3.9,5.2,5.8,7.9c-47.2,0.2-94.3,0-141.5,0.1c-28.9,0.6-56.8,10.9-81.5,25.5
		c-23.2,13.5-44,31-63,49.9c-0.4-40.6-0.1-81.2-0.2-121.8c0-156.3,0-312.7,0-469C1146.5,491.9,1145.9,483.7,1145.8,475.5z"/>
	<path class="st3" d="M1281.8,499.4c23.9,1.8,47.9,2.4,71.8,2c-3,0.3-6.1,0.7-9.1,1c-0.1,3.2-0.2,6.4,0,9.6
		c4.3,81.8,19.2,163,44,241c21.1,65.6,49.4,129.2,86.8,187.2c6.5,10,12.7,20.4,20.6,29.4c-12.3,14.7-24.2,29.9-34.8,45.8
		c-2.1,0-4.3,0-6.4-0.1c-33.7-42.6-62.2-89.2-85.3-138.3c-30.6-64.9-51.8-134-66-204.2C1292,615.7,1284.8,557.7,1281.8,499.4z"/>
	<path class="st5" d="M609.4,503.9c12,28.9,29.5,56,53.8,76c20.1,16.8,44.7,28.3,70.6,32.4c10.6,28.7,26.9,56.1,50.8,75.7
		c22.7,18.9,51.2,29.9,80.4,33.6c3,0.5,6.7,0.3,8.5,3.2c20.5,24.6,47.5,43.2,76.8,55.8c20.8,9,42.7,15.2,64.9,19.3
		c8.1,1.5,16.4,2.9,24.6,1.9c2.7-0.2,5.2-1.6,7.5-2.9c1.2,12.9,0.2,25.8,0.5,38.7c0,88.4,0.1,176.8-0.1,265.1
		c-5.7-1-10.8-3.6-16.1-5.7c-31.7-13.9-60.9-33-87.4-55.2c-48.8-41.1-87.6-93.9-112.4-152.7c-19.8-46.4-31-96.3-35.4-146.5
		c0.1-5.2-4.8-9.8-10-8.9c-4.6,0.5-8.2,5.2-7.5,9.8c6.3,75.7,28.6,150.7,69.6,215c14.7,23.4,32,45,50.9,65.1
		c-46.6,0.1-93.3-4.1-138.9-13.7c-37.4-8.2-74.7-19.4-108.2-38.3c0.1-9.9,0.5-20.3-4.3-29.2c-7.8-16.1-25.4-24.4-42.2-27.3
		c-5.3-0.8-12.2-3.2-16.2,1.7c-4.4,4.7-1.4,13.4,5,14.2c9.1,1.2,18.3,3,26.3,7.7c7.4,4.2,13.5,11.7,13.9,20.5c0,30.4,0,60.7,0,91.1
		c-0.4,5.7,4.8,9,8.4,12.6c25.3,23.8,56.5,40.9,89.7,50.9c21.9,6.6,44.6,10.3,67.5,11.8c2.7,0.2,5.7-0.2,7.7-2.2
		c3.6-3.7,6.3-8.2,9.9-11.8c3.9,21.8,9.8,43.8,21.6,62.8c-16.3,6.2-33.7,9-51,10.4c-40.3,2.9-80.9-4.5-118.4-19.2
		c-29.2-11.3-57.2-26.3-81.8-45.8c-25.2-19.8-46.5-44.3-62.6-71.9c-16.3-27.8-27.5-58.4-34.8-89.7c-9-38.5-12.6-78.2-13.1-117.7
		c73.8,0,147.6-0.1,221.5,0c12.3,14.4,26,27.7,41.2,39.1c3.9,2.7,7.5,5.8,11.8,8c5.6,2.6,12.6-2.4,11.9-8.5c0-4.4-3.9-7-7.2-9.1
		c-27.3-18.8-49.7-44.1-67.6-71.9c-19.5-30.1-33.9-63.3-45.1-97.3c-16.8-51.3-26.4-104.6-31.9-158.2
		C611.2,529.8,609.6,516.9,609.4,503.9z"/>
	<path class="st0" d="M371.3,534.3c5.3-2.8,12.5,1.4,12.5,7.4c0.2,14.5,0,29.1,0.1,43.6c0.1,14.8-9.3,30.2-23.8,34.6
		c-4.1,1.4-9.4,0.9-11.9-3c-3.3-4.5-1.1-11.9,4.5-13.2c8.9-1.5,14.1-11,13.6-19.5c0-13.9,0-27.7,0-41.6
		C366.2,539.2,368.1,535.7,371.3,534.3z"/>
	<path class="st1" d="M2003.4,611c17.9,6.9,35,15.8,51,26.3c10.8,7.2,21.4,14.9,30.6,24.1c-17.2,0.2-34.3,0.2-51.5-0.1
		c-7.4-16-16.5-31.2-26.9-45.4C2005.4,614.3,2004.3,612.6,2003.4,611z"/>
	<path class="st2" d="M2041.2,679c19.5-0.4,38.9,0,58.4-0.1c1.7-0.2,3.3,0.5,4.3,2c7.7,9.4,14.6,19.4,20.6,30
		c2.8,5.4,6.1,10.6,7.9,16.5c-25.7,0-51.3,0-77,0C2051.8,710.9,2047,694.8,2041.2,679z"/>
	<path class="st1" d="M2058.7,744.7c27,0.1,54-0.1,81,0.1c3.6,10.4,6.6,20.9,8.9,31.6c0.7,2.3-1.2,4.2-2.5,5.8
		c-6.7,7.4-17,10.5-26.8,10.5c-18.5,0-37,0-55.4,0c-1-9.5-1.4-19-2.6-28.4C2060.5,757.8,2059.3,751.3,2058.7,744.7z"/>
	<path class="st2" d="M2136,807.8c6-1.6,11.4-4.7,16.7-7.8c2.7,20,3.4,40.2,3,60.4c-0.1,2.7,0.2,5.8-1.5,8.2
		c-9.1,14.7-23.8,24.8-39.2,32.1c-22.8,10.5-47.9,16.1-72.9,16.7c-56.1-0.9-112.1-0.7-168.2-0.5c-55.7,0.1-111.5,0.5-167.2,0.4
		c-12.5,0-25.1-0.1-37.6,0.1c-33.4,0.8-66.6,6.4-98.3,16.7c-8,2.4-15.6,5.8-23.5,8.3c7.4-7.6,15.7-14.2,23.9-20.8
		c42.2-33.8,90.2-60.1,140.9-78.6c52.2-18.9,107.2-30.4,162.8-32.8c76.9-0.2,153.7,0,230.6-0.1C2115.6,810,2126.1,811,2136,807.8z"
		/>
	<path class="st1" d="M2106.6,922.8c16.8-5.8,32.6-14.5,46.3-25.9c-3.6,32.2-11.4,63.9-22.3,94.4c-4.1,13.4-14.7,23.7-26.1,31.3
		c-16,10.5-34.6,16.4-53.1,20.8c-48.4,11-98.4,10.3-147.8,11c-79.8,0.8-159.6,1.7-239.5,2.1c-23-0.2-46.1,2.1-68.5,7.4
		c-52.8,12.2-101.3,40.1-140.7,77c-18.9,17.5-35.8,37-51,57.8c-2.2,3.1-4.3,6.3-6.9,9.1c5.7-24.7,13.6-49,22.4-72.8
		c19.3-50.9,45.7-99.2,79.9-141.7c3.4-4.1,6.5-8.8,11.2-11.6c23.3-15.6,49.4-26.7,76.3-34.4c30.2-8.7,61.7-12.7,93.1-12.6
		c107.9-0.1,215.7-0.8,323.6-0.5c13.5,0,27,0.4,40.5,0.4C2065.3,934.1,2086.5,929.9,2106.6,922.8z"/>
	<path class="st2" d="M2088.9,1049.7c7.1-2.6,13.6-6.4,20.4-9.5c-7.4,15.6-16.3,30.4-25.6,44.8c-11.5,17.6-24,34.5-37.6,50.5
		c-10.6,11.3-23.6,20-37.3,27c-35.6,18-75.5,25.6-115.1,28.1c-28.4,0.9-56.8,0.3-85.2,0.5c-25.4,0.1-50.8-0.2-76.2,0.1
		c-45.8,0.7-91.5,9.3-134.5,25.4c-64.6,24.1-122.4,64.5-170.3,113.7c-13.2,13.6-25.7,27.8-37.4,42.7c-5.9,7.1-10.9,15-16.9,22.1
		c-0.2-24.3,1.8-48.5,4-72.7c2-20.1,4.6-40.2,8-60.1c0.7-4.2,3.3-7.7,5.3-11.4c25.6-44.1,58-84.9,98.4-116.3
		c45.5-35.8,102.1-58.4,160.2-60.4c46.5-0.3,93-1,139.5-1.1c54.4-1,108.9-0.8,163.3-1.9c24.1-0.7,48.2-1.9,72-5.3
		C2046.2,1062.8,2068.2,1058,2088.9,1049.7z"/>
	<path class="st10" d="M839.1,1084.2c21.3,7.3,42.4,15.4,63.6,23c5.2,2.1,10.8,3.4,15.7,6.2c-9.4,16.3-22.7,30.1-38,41
		c-7.7,5.3-15.8,10.4-24.5,13.8c-14.3-21.4-19.6-47.2-22.9-72.3C832,1090.9,836.7,1087.8,839.1,1084.2z"/>
	<path class="st4" d="M1057.6,1122.6c23.7-0.1,47.5,0,71.2,0c3.1,0,6.3-0.3,9.2,0.7c26.8,10.2,49.5,29.2,67.1,51.6
		c9,11.4,16.9,23.8,23.6,36.7c2.2,4.4,4.7,8.8,6.2,13.5c-24.3,11.1-45.3,28.9-61.1,50.3c-18.1,24.2-30.2,52.3-38.6,81.2
		c-12.3,43.2-16.9,88.2-16.4,133c-14.8,4.9-28.4,12.9-39.8,23.6c-16.1-17.9-35.4-33.3-57.6-43c-2.7-1.1-5.4-2.3-8-3.5
		c9.9-7.7,21.3-13.2,31.6-20.3c10.6-7.6,15.1-20.7,17.5-33c3.5-17.6,3.4-35.6,3.4-53.5c-0.1-33.3-3.6-66.5-5.7-99.7
		c-2.5-39.6-3.9-79.4-3.3-119.1C1057,1135.1,1057.1,1128.8,1057.6,1122.6z"/>
	<path class="st1" d="M1923,1205.2c24.4-3.1,48.5-8.9,71.6-17.3c-10.8,10.4-22.7,19.6-34.5,28.7c-31.1,23.5-64.6,43.8-99.6,60.8
		c-53.3,25.7-110.8,44.4-170.1,48.3c-14,0.9-28.1,0.3-42.1,0.5c-63.8-0.1-127.5,0.2-191.3-0.1c11.1-11.4,23.7-21.3,36.2-31.2
		c27.9-21.5,58.3-39.8,90.5-53.9c36.7-16.2,76-26.5,115.9-30.6c23.4-2.6,46.9-2,70.4-2c30.3,0,60.7,0,91,0
		C1881.7,1208.6,1902.4,1208,1923,1205.2z"/>
	<path class="st5" d="M1962.4,1236.7c9-6.5,17.6-13.5,26.4-20.3c6.3,25.1,9.9,50.8,13.1,76.4c-20,4.6-40.1,9.8-58.8,18.6
		c-14.4,6.7-28,15.9-38,28.3c-9.6,11.7-15.8,25.8-20,40.3c-5.2,18-7.8,36.7-10.1,55.3c-3.4,28.5-6.2,57.1-9.5,85.7
		c-31.4,12.4-60.8,32-80.4,59.9c-2.7,3.3-4.4,7.4-7.2,10.6c-5.1-4.4-9.4-9.7-14.5-14.1c-16.5-14.9-35.2-27.5-55.9-35.8
		c4.5-5.6,10.3-10.1,15.5-15c8.7-7.8,17.7-15.2,26-23.4c5.2-5.2,10.4-10.7,13.1-17.6c1.9-4.7,1.4-9.9,1.4-14.8
		c0-46.4,0-92.8,0-139.2c37.1-9.4,73.1-23.1,107.4-39.9C1902.9,1276,1933.6,1257.7,1962.4,1236.7z"/>
	<path class="st6" d="M1657.2,1343.2c13.6-0.2,27.2,0.6,40.8-1c-2.7,6.7-6.7,12.9-9.1,19.8c-3.8,9.4-6.1,19.4-8.4,29.2
		c-6.5-0.7-12.9,0.9-19.3,1.3c-12.2,1.1-24.4,2.2-36.6,2c-17.5,0-34.9,0-52.4,0c-0.2-17.1-0.1-34.2,0-51.3
		C1600.5,1343.2,1628.8,1343.3,1657.2,1343.2z"/>
	<path class="st9" d="M1661.2,1392.6c6.4-0.5,12.8-2.1,19.3-1.3c-4.7,22.2-6.2,44.9-8.9,67.3c-4.2,3.8-9.6,6-14.1,9.5
		c-29.6,19.9-55.9,45.4-74,76.4c-4.4,7.2-7.9,15-11.5,22.6c-4.5-4.7-8.4-10.1-13.1-14.7c-16.1-16.3-36-28.9-57.8-36.3
		c12.1-14.7,26.2-27.6,40.4-40.2c6.8-6.1,13.8-12,20-18.7c5.5-6,10.8-13.3,10.7-21.9c0-13.6-0.1-27.1,0-40.7c17.5,0,34.9,0,52.4,0
		C1636.8,1394.8,1649,1393.7,1661.2,1392.6z"/>
	<path class="st10" d="M990.8,1483.3c2.1-1.6,4.2-4.4,7.1-3.3c27.6,7.1,51.2,25,69.7,46.2c-4,5.7-7.7,11.7-11.2,17.8
		c-36.6,0-73.3,0.2-109.9-0.1C954.2,1519.6,971.9,1499.8,990.8,1483.3z"/>
	<path class="st10" d="M1488.4,1532.6c1.1-2.3,4-1.2,5.9-0.8c26.7,8.2,49.8,26.2,66,48.7c1.6,2.3,3.6,4.4,4.6,7.2
		c-1.6,7.4-3.5,14.7-4.3,22.2c-33.1,0.6-66.2,0.1-99.3,0.2C1462.7,1582.4,1473.2,1555.6,1488.4,1532.6z"/>
	<path class="st10" d="M1693.9,1555.2c15.9,4.9,30.4,13.4,43.7,23.3c11.8,8.9,22.6,19,32.2,30.2c-3,8.3-6.1,16.7-7.7,25.4
		c-1.4,5.9-1.8,11.9-2.8,17.8c-36,0.2-72.1,0.1-108.1,0C1653.7,1615.9,1670.3,1582,1693.9,1555.2z"/>
</g>
</svg>
